<svg width="91" height="31" viewBox="0 0 91 31" fill="none" xmlns="http://www.w3.org/2000/svg">
<path d="M33.005 9.03302V11.2941H27.1821V14.8759H31.6443V17.097H27.1821V23H24.3807V9.03302H33.005ZM39.9139 23.1801C38.8467 23.1801 37.8862 22.9466 37.0325 22.4797C36.1787 21.9995 35.5051 21.3258 35.0115 20.4587C34.5312 19.5916 34.2911 18.5911 34.2911 17.4572C34.2911 16.3233 34.5379 15.3228 35.0315 14.4557C35.5384 13.5886 36.2254 12.9216 37.0925 12.4547C37.9596 11.9745 38.9268 11.7344 39.994 11.7344C41.0612 11.7344 42.0283 11.9745 42.8954 12.4547C43.7625 12.9216 44.4429 13.5886 44.9364 14.4557C45.4434 15.3228 45.6968 16.3233 45.6968 17.4572C45.6968 18.5911 45.4367 19.5916 44.9164 20.4587C44.4095 21.3258 43.7158 21.9995 42.8354 22.4797C41.9683 22.9466 40.9945 23.1801 39.9139 23.1801ZM39.9139 20.7389C40.4208 20.7389 40.8944 20.6188 41.3346 20.3787C41.7882 20.1252 42.1484 19.7517 42.4152 19.2581C42.682 18.7645 42.8154 18.1642 42.8154 17.4572C42.8154 16.4034 42.5352 15.5963 41.975 15.036C41.428 14.4624 40.7543 14.1756 39.9539 14.1756C39.1535 14.1756 38.4799 14.4624 37.9329 15.036C37.3993 15.5963 37.1325 16.4034 37.1325 17.4572C37.1325 18.5111 37.3927 19.3248 37.9129 19.8984C38.4465 20.4587 39.1135 20.7389 39.9139 20.7389ZM52.6742 23.1801C51.607 23.1801 50.6465 22.9466 49.7928 22.4797C48.939 21.9995 48.2653 21.3258 47.7718 20.4587C47.2915 19.5916 47.0514 18.5911 47.0514 17.4572C47.0514 16.3233 47.2982 15.3228 47.7918 14.4557C48.2987 13.5886 48.9857 12.9216 49.8528 12.4547C50.7199 11.9745 51.687 11.7344 52.7542 11.7344C53.8214 11.7344 54.7886 11.9745 55.6557 12.4547C56.5228 12.9216 57.2031 13.5886 57.6967 14.4557C58.2036 15.3228 58.4571 16.3233 58.4571 17.4572C58.4571 18.5911 58.197 19.5916 57.6767 20.4587C57.1698 21.3258 56.4761 21.9995 55.5957 22.4797C54.7286 22.9466 53.7547 23.1801 52.6742 23.1801ZM52.6742 20.7389C53.1811 20.7389 53.6547 20.6188 54.0949 20.3787C54.5485 20.1252 54.9087 19.7517 55.1755 19.2581C55.4423 18.7645 55.5757 18.1642 55.5757 17.4572C55.5757 16.4034 55.2955 15.5963 54.7352 15.036C54.1883 14.4624 53.5146 14.1756 52.7142 14.1756C51.9138 14.1756 51.2402 14.4624 50.6932 15.036C50.1596 15.5963 49.8928 16.4034 49.8928 17.4572C49.8928 18.5111 50.1529 19.3248 50.6732 19.8984C51.2068 20.4587 51.8738 20.7389 52.6742 20.7389ZM59.7917 17.4172C59.7917 16.2966 60.0118 15.3028 60.452 14.4357C60.9056 13.5686 61.5192 12.9016 62.2929 12.4347C63.0666 11.9678 63.9271 11.7344 64.8742 11.7344C65.5946 11.7344 66.2816 11.8944 66.9352 12.2146C67.5889 12.5214 68.1092 12.935 68.496 13.4552V8.1926H71.3374V23H68.496V21.3592C68.1492 21.9061 67.6623 22.3463 67.0353 22.6798C66.4083 23.0133 65.6813 23.1801 64.8542 23.1801C63.9204 23.1801 63.0666 22.94 62.2929 22.4597C61.5192 21.9795 60.9056 21.3058 60.452 20.4387C60.0118 19.5583 59.7917 18.5511 59.7917 17.4172ZM68.516 17.4572C68.516 16.7769 68.3826 16.1966 68.1158 15.7164C67.849 15.2228 67.4889 14.8493 67.0353 14.5958C66.5817 14.329 66.0948 14.1956 65.5746 14.1956C65.0543 14.1956 64.5741 14.3223 64.1338 14.5758C63.6936 14.8292 63.3334 15.2028 63.0533 15.6963C62.7865 16.1766 62.6531 16.7502 62.6531 17.4172C62.6531 18.0842 62.7865 18.6712 63.0533 19.1781C63.3334 19.6717 63.6936 20.0519 64.1338 20.3187C64.5874 20.5855 65.0676 20.7189 65.5746 20.7189C66.0948 20.7189 66.5817 20.5921 67.0353 20.3387C67.4889 20.0719 67.849 19.6983 68.1158 19.2181C68.3826 18.7245 68.516 18.1376 68.516 17.4572ZM75.4942 10.5938C75.0006 10.5938 74.5871 10.4404 74.2536 10.1336C73.9334 9.81341 73.7733 9.41988 73.7733 8.95298C73.7733 8.48608 73.9334 8.09922 74.2536 7.7924C74.5871 7.47224 75.0006 7.31216 75.4942 7.31216C75.9878 7.31216 76.3947 7.47224 76.7148 7.7924C77.0483 8.09922 77.2151 8.48608 77.2151 8.95298C77.2151 9.41988 77.0483 9.81341 76.7148 10.1336C76.3947 10.4404 75.9878 10.5938 75.4942 10.5938ZM76.8749 11.9145V23H74.0735V11.9145H76.8749ZM89.9478 17.2171C89.9478 17.6173 89.9212 17.9775 89.8678 18.2976H81.7637C81.8304 19.098 82.1106 19.725 82.6042 20.1786C83.0977 20.6321 83.7047 20.8589 84.4251 20.8589C85.4656 20.8589 86.206 20.412 86.6462 19.5183H89.6677C89.3475 20.5855 88.7339 21.4659 87.8268 22.1596C86.9197 22.8399 85.8058 23.1801 84.4851 23.1801C83.4179 23.1801 82.4574 22.9466 81.6037 22.4797C80.7632 21.9995 80.1029 21.3258 79.6227 20.4587C79.1558 19.5916 78.9223 18.5911 78.9223 17.4572C78.9223 16.31 79.1558 15.3028 79.6227 14.4357C80.0896 13.5686 80.7432 12.9016 81.5837 12.4347C82.4241 11.9678 83.3912 11.7344 84.4851 11.7344C85.539 11.7344 86.4794 11.9611 87.3065 12.4147C88.1469 12.8683 88.7939 13.5153 89.2475 14.3557C89.7144 15.1828 89.9478 16.1366 89.9478 17.2171ZM87.0464 16.4167C87.033 15.6963 86.7729 15.1227 86.266 14.6958C85.7591 14.2556 85.1388 14.0355 84.4051 14.0355C83.7114 14.0355 83.1244 14.249 82.6442 14.6758C82.1773 15.0894 81.8905 15.6697 81.7838 16.4167H87.0464Z" fill="#EA1D2C"/>
<path d="M20 12V20C20 20.5304 19.7893 21.0391 19.4142 21.4142C19.0391 21.7893 18.5304 22 18 22H6C5.46957 22 4.96086 21.7893 4.58579 21.4142C4.21071 21.0391 4 20.5304 4 20V12" stroke="#EA1D2C" stroke-width="2" stroke-linecap="round" stroke-linejoin="round"/>
<path d="M4 8L20 4" stroke="#EA1D2C" stroke-width="2" stroke-linecap="round" stroke-linejoin="round"/>
<path d="M8.86 6.77998L8.41 4.96998C8.34553 4.71521 8.33189 4.45024 8.36988 4.1902C8.40787 3.93016 8.49674 3.68016 8.6314 3.45448C8.76606 3.2288 8.94388 3.03188 9.15469 2.87497C9.3655 2.71805 9.60517 2.60422 9.86 2.53998L11.8 2.05998C12.0554 1.99567 12.3211 1.98244 12.5816 2.02108C12.8422 2.05971 13.0926 2.14943 13.3184 2.28509C13.5441 2.42075 13.7409 2.59968 13.8974 2.8116C14.0538 3.02351 14.1669 3.26425 14.23 3.51998L14.68 5.31998" stroke="#EA1D2C" stroke-width="2" stroke-linecap="round" stroke-linejoin="round"/>
</svg>
